<mxfile host="app.diagrams.net" modified="2024-04-04T16:20:39.891Z" agent="Mozilla/5.0 (Windows NT 10.0; Win64; x64; rv:124.0) Gecko/20100101 Firefox/124.0" etag="1eM_7i48JWwHUqiTIQvA" version="24.0.7" type="device">
  <diagram name="Страница 1" id="HlI3dwkvkYv4sju7Trsw">
    <mxGraphModel dx="735" dy="846" grid="1" gridSize="10" guides="1" tooltips="1" connect="1" arrows="1" fold="1" page="1" pageScale="1" pageWidth="827" pageHeight="1169" background="#ffffff" math="0" shadow="0">
      <root>
        <mxCell id="0" />
        <mxCell id="1" parent="0" />
        <mxCell id="m7j-Caoz4gsnY-U6FhUT-44" value="Клиент" style="shape=umlActor;verticalLabelPosition=bottom;verticalAlign=top;html=1;outlineConnect=0;fontSize=13;" vertex="1" parent="1">
          <mxGeometry x="1150" y="360" width="30" height="60" as="geometry" />
        </mxCell>
        <mxCell id="m7j-Caoz4gsnY-U6FhUT-45" value="Менеджер" style="shape=umlActor;verticalLabelPosition=bottom;verticalAlign=top;html=1;outlineConnect=0;fontSize=13;" vertex="1" parent="1">
          <mxGeometry x="1370" y="190" width="30" height="60" as="geometry" />
        </mxCell>
        <mxCell id="m7j-Caoz4gsnY-U6FhUT-46" value="" style="endArrow=none;html=1;rounded=0;exitX=1;exitY=0.3333333333333333;exitDx=0;exitDy=0;exitPerimeter=0;entryX=0;entryY=0.3333333333333333;entryDx=0;entryDy=0;entryPerimeter=0;fontSize=13;" edge="1" parent="1" source="m7j-Caoz4gsnY-U6FhUT-44" target="m7j-Caoz4gsnY-U6FhUT-45">
          <mxGeometry width="50" height="50" relative="1" as="geometry">
            <mxPoint x="820" y="220" as="sourcePoint" />
            <mxPoint x="870" y="170" as="targetPoint" />
          </mxGeometry>
        </mxCell>
        <mxCell id="m7j-Caoz4gsnY-U6FhUT-48" value="" style="endArrow=open;endFill=1;endSize=12;html=1;rounded=0;fontSize=13;" edge="1" parent="1">
          <mxGeometry width="160" relative="1" as="geometry">
            <mxPoint x="1230" y="320" as="sourcePoint" />
            <mxPoint x="1320" y="240" as="targetPoint" />
          </mxGeometry>
        </mxCell>
        <mxCell id="m7j-Caoz4gsnY-U6FhUT-50" value="" style="endArrow=open;endFill=1;endSize=12;html=1;rounded=0;dashed=1;fontSize=13;" edge="1" parent="1">
          <mxGeometry width="160" relative="1" as="geometry">
            <mxPoint x="1331" y="260" as="sourcePoint" />
            <mxPoint x="1241" y="340" as="targetPoint" />
          </mxGeometry>
        </mxCell>
        <mxCell id="m7j-Caoz4gsnY-U6FhUT-52" value="1 Запрос на&amp;nbsp;&lt;div style=&quot;font-size: 13px;&quot;&gt;оформление кредита&lt;/div&gt;&lt;div style=&quot;font-size: 13px;&quot;&gt;&lt;br style=&quot;font-size: 13px;&quot;&gt;&lt;/div&gt;&lt;div style=&quot;font-size: 13px;&quot;&gt;8 Запрос на&amp;nbsp;&lt;/div&gt;&lt;div style=&quot;font-size: 13px;&quot;&gt;изменение состояния&amp;nbsp;&lt;/div&gt;&lt;div style=&quot;font-size: 13px;&quot;&gt;кредита&lt;/div&gt;" style="text;html=1;align=center;verticalAlign=middle;resizable=0;points=[];autosize=1;strokeColor=none;fillColor=none;fontSize=13;" vertex="1" parent="1">
          <mxGeometry x="1110" y="215" width="160" height="110" as="geometry" />
        </mxCell>
        <mxCell id="m7j-Caoz4gsnY-U6FhUT-55" value="&lt;div style=&quot;font-size: 13px;&quot;&gt;7 Выдача кредита&lt;/div&gt;&lt;div style=&quot;font-size: 13px;&quot;&gt;&lt;br style=&quot;font-size: 13px;&quot;&gt;&lt;/div&gt;9 Кредит с&amp;nbsp;&lt;div style=&quot;font-size: 13px;&quot;&gt;изменённым&amp;nbsp;&lt;/div&gt;&lt;div style=&quot;font-size: 13px;&quot;&gt;состоянием&lt;/div&gt;" style="text;html=1;align=center;verticalAlign=middle;resizable=0;points=[];autosize=1;strokeColor=none;fillColor=none;fontSize=13;" vertex="1" parent="1">
          <mxGeometry x="1275" y="300" width="130" height="90" as="geometry" />
        </mxCell>
        <mxCell id="m7j-Caoz4gsnY-U6FhUT-56" value="Отдел кредитных историй клиентов" style="rounded=0;whiteSpace=wrap;html=1;fontSize=13;" vertex="1" parent="1">
          <mxGeometry x="1700" y="130" width="120" height="60" as="geometry" />
        </mxCell>
        <mxCell id="m7j-Caoz4gsnY-U6FhUT-57" value="" style="endArrow=none;html=1;rounded=0;exitX=1;exitY=0.3333333333333333;exitDx=0;exitDy=0;exitPerimeter=0;entryX=0;entryY=1;entryDx=0;entryDy=0;fontSize=13;" edge="1" parent="1" source="m7j-Caoz4gsnY-U6FhUT-45" target="m7j-Caoz4gsnY-U6FhUT-56">
          <mxGeometry width="50" height="50" relative="1" as="geometry">
            <mxPoint x="820" y="410" as="sourcePoint" />
            <mxPoint x="870" y="360" as="targetPoint" />
          </mxGeometry>
        </mxCell>
        <mxCell id="m7j-Caoz4gsnY-U6FhUT-59" value="" style="endArrow=open;endFill=1;endSize=12;html=1;rounded=0;fontSize=13;" edge="1" parent="1">
          <mxGeometry width="160" relative="1" as="geometry">
            <mxPoint x="1440" y="200" as="sourcePoint" />
            <mxPoint x="1660" y="180" as="targetPoint" />
          </mxGeometry>
        </mxCell>
        <mxCell id="m7j-Caoz4gsnY-U6FhUT-60" value="2 Запрос на получение&amp;nbsp;&lt;div style=&quot;font-size: 13px;&quot;&gt;кредитной истории&amp;nbsp;&lt;/div&gt;&lt;div style=&quot;font-size: 13px;&quot;&gt;клиента&lt;/div&gt;" style="text;html=1;align=center;verticalAlign=middle;resizable=0;points=[];autosize=1;strokeColor=none;fillColor=none;fontSize=13;" vertex="1" parent="1">
          <mxGeometry x="1460" y="130" width="170" height="60" as="geometry" />
        </mxCell>
        <mxCell id="m7j-Caoz4gsnY-U6FhUT-61" value="" style="endArrow=open;endFill=1;endSize=12;html=1;rounded=0;dashed=1;fontSize=13;" edge="1" parent="1">
          <mxGeometry width="160" relative="1" as="geometry">
            <mxPoint x="1680" y="200" as="sourcePoint" />
            <mxPoint x="1440" y="220" as="targetPoint" />
          </mxGeometry>
        </mxCell>
        <mxCell id="m7j-Caoz4gsnY-U6FhUT-63" value="3 Кредитная история клиента" style="text;html=1;align=center;verticalAlign=middle;resizable=0;points=[];autosize=1;strokeColor=none;fillColor=none;fontSize=13;" vertex="1" parent="1">
          <mxGeometry x="1485" y="220" width="200" height="30" as="geometry" />
        </mxCell>
        <mxCell id="m7j-Caoz4gsnY-U6FhUT-64" value="" style="curved=1;endArrow=classic;html=1;rounded=0;exitX=0.25;exitY=0.1;exitDx=0;exitDy=0;exitPerimeter=0;entryX=0.25;entryY=0.1;entryDx=0;entryDy=0;entryPerimeter=0;fontSize=13;" edge="1" parent="1" source="m7j-Caoz4gsnY-U6FhUT-45" target="m7j-Caoz4gsnY-U6FhUT-45">
          <mxGeometry width="50" height="50" relative="1" as="geometry">
            <mxPoint x="1320" y="130" as="sourcePoint" />
            <mxPoint x="1380" y="180" as="targetPoint" />
            <Array as="points">
              <mxPoint x="1300" y="220" />
              <mxPoint x="1300" y="160" />
            </Array>
          </mxGeometry>
        </mxCell>
        <mxCell id="m7j-Caoz4gsnY-U6FhUT-65" value="4 Оценка&amp;nbsp;&lt;div style=&quot;font-size: 13px;&quot;&gt;кредитоспособности&lt;/div&gt;" style="text;html=1;align=center;verticalAlign=middle;resizable=0;points=[];autosize=1;strokeColor=none;fillColor=none;fontSize=13;" vertex="1" parent="1">
          <mxGeometry x="1155" y="160" width="150" height="40" as="geometry" />
        </mxCell>
        <mxCell id="m7j-Caoz4gsnY-U6FhUT-66" value="" style="curved=1;endArrow=classic;html=1;rounded=0;exitX=0.5;exitY=0;exitDx=0;exitDy=0;exitPerimeter=0;entryX=0.5;entryY=0;entryDx=0;entryDy=0;entryPerimeter=0;fontSize=13;" edge="1" parent="1" source="m7j-Caoz4gsnY-U6FhUT-45" target="m7j-Caoz4gsnY-U6FhUT-45">
          <mxGeometry width="50" height="50" relative="1" as="geometry">
            <mxPoint x="1389" y="146" as="sourcePoint" />
            <mxPoint x="1420" y="140" as="targetPoint" />
            <Array as="points">
              <mxPoint x="1260" y="130" />
              <mxPoint x="1340" y="80" />
            </Array>
          </mxGeometry>
        </mxCell>
        <mxCell id="m7j-Caoz4gsnY-U6FhUT-67" value="5 Расчёт&amp;nbsp;&lt;div style=&quot;font-size: 13px;&quot;&gt;кредитных условий&lt;/div&gt;" style="text;html=1;align=center;verticalAlign=middle;resizable=0;points=[];autosize=1;strokeColor=none;fillColor=none;fontSize=13;" vertex="1" parent="1">
          <mxGeometry x="1205" y="60" width="140" height="40" as="geometry" />
        </mxCell>
        <mxCell id="m7j-Caoz4gsnY-U6FhUT-68" value="" style="curved=1;endArrow=classic;html=1;rounded=0;exitX=0.75;exitY=0.1;exitDx=0;exitDy=0;exitPerimeter=0;entryX=0.75;entryY=0.1;entryDx=0;entryDy=0;entryPerimeter=0;fontSize=13;" edge="1" parent="1" source="m7j-Caoz4gsnY-U6FhUT-45" target="m7j-Caoz4gsnY-U6FhUT-45">
          <mxGeometry width="50" height="50" relative="1" as="geometry">
            <mxPoint x="1465" y="150" as="sourcePoint" />
            <mxPoint x="1510" y="100" as="targetPoint" />
            <Array as="points">
              <mxPoint x="1400" y="50" />
              <mxPoint x="1470" y="80" />
            </Array>
          </mxGeometry>
        </mxCell>
        <mxCell id="m7j-Caoz4gsnY-U6FhUT-69" value="6 Утверждение&amp;nbsp;&lt;div style=&quot;font-size: 13px;&quot;&gt;кредита&lt;/div&gt;" style="text;html=1;align=center;verticalAlign=middle;resizable=0;points=[];autosize=1;strokeColor=none;fillColor=none;fontSize=13;" vertex="1" parent="1">
          <mxGeometry x="1390" y="20" width="120" height="40" as="geometry" />
        </mxCell>
        <mxCell id="m7j-Caoz4gsnY-U6FhUT-70" value="Консультант" style="shape=umlActor;verticalLabelPosition=bottom;verticalAlign=top;html=1;outlineConnect=0;fontSize=13;" vertex="1" parent="1">
          <mxGeometry x="880" y="360" width="30" height="60" as="geometry" />
        </mxCell>
        <mxCell id="m7j-Caoz4gsnY-U6FhUT-72" value="" style="endArrow=none;html=1;rounded=0;entryX=0;entryY=0.3333333333333333;entryDx=0;entryDy=0;entryPerimeter=0;exitX=1;exitY=0.3333333333333333;exitDx=0;exitDy=0;exitPerimeter=0;fontSize=13;" edge="1" parent="1" source="m7j-Caoz4gsnY-U6FhUT-70" target="m7j-Caoz4gsnY-U6FhUT-44">
          <mxGeometry width="50" height="50" relative="1" as="geometry">
            <mxPoint x="920" y="530" as="sourcePoint" />
            <mxPoint x="970" y="480" as="targetPoint" />
          </mxGeometry>
        </mxCell>
        <mxCell id="m7j-Caoz4gsnY-U6FhUT-73" value="" style="endArrow=open;endFill=1;endSize=12;html=1;rounded=0;fontSize=13;" edge="1" parent="1">
          <mxGeometry width="160" relative="1" as="geometry">
            <mxPoint x="1100" y="369.5" as="sourcePoint" />
            <mxPoint x="970" y="369.5" as="targetPoint" />
          </mxGeometry>
        </mxCell>
        <mxCell id="m7j-Caoz4gsnY-U6FhUT-74" value="10 Запрос на проведение&amp;nbsp;&lt;div style=&quot;font-size: 13px;&quot;&gt;консультации&lt;/div&gt;" style="text;html=1;align=center;verticalAlign=middle;resizable=0;points=[];autosize=1;strokeColor=none;fillColor=none;fontSize=13;" vertex="1" parent="1">
          <mxGeometry x="940" y="319.5" width="180" height="40" as="geometry" />
        </mxCell>
        <mxCell id="m7j-Caoz4gsnY-U6FhUT-75" value="" style="endArrow=open;endFill=1;endSize=12;html=1;rounded=0;dashed=1;fontSize=13;" edge="1" parent="1">
          <mxGeometry width="160" relative="1" as="geometry">
            <mxPoint x="970" y="400" as="sourcePoint" />
            <mxPoint x="1100" y="400" as="targetPoint" />
          </mxGeometry>
        </mxCell>
        <mxCell id="m7j-Caoz4gsnY-U6FhUT-76" value="&lt;div style=&quot;font-size: 13px;&quot;&gt;Информация о&amp;nbsp;&lt;/div&gt;&lt;div style=&quot;font-size: 13px;&quot;&gt;запланированной&amp;nbsp;&lt;/div&gt;&lt;div style=&quot;font-size: 13px;&quot;&gt;консультации&lt;/div&gt;" style="text;html=1;align=center;verticalAlign=middle;resizable=0;points=[];autosize=1;strokeColor=none;fillColor=none;fontSize=13;" vertex="1" parent="1">
          <mxGeometry x="965" y="395" width="130" height="60" as="geometry" />
        </mxCell>
      </root>
    </mxGraphModel>
  </diagram>
</mxfile>
